<?xml version="1.0" encoding="UTF-8"?>
<svg xmlns="http://www.w3.org/2000/svg" xmlns:xlink="http://www.w3.org/1999/xlink" width="277.04pt" height="59.32pt" viewBox="0 0 277.04 59.32" version="1.1">
<defs>
<clipPath id="clip1">
  <path d="M 133 17 L 277.039063 17 L 277.039063 59.320313 L 133 59.320313 Z M 133 17 "/>
</clipPath>
</defs>
<g id="surface1">
<path style=" stroke:none;fill-rule:nonzero;fill:rgb(94.898987%,39.599609%,13.299561%);fill-opacity:1;" d="M 157.140625 46.324219 C 166.867188 46.324219 174.75 38.441406 174.75 28.714844 C 174.75 18.988281 166.867188 11.101563 157.140625 11.101563 C 147.410156 11.101563 139.527344 18.988281 139.527344 28.714844 C 139.527344 38.441406 147.410156 46.324219 157.140625 46.324219 "/>
<path style="fill:none;stroke-width:21.0001;stroke-linecap:butt;stroke-linejoin:miter;stroke:rgb(94.898987%,39.599609%,13.299561%);stroke-opacity:1;stroke-miterlimit:4;" d="M 1572.1875 503.395313 L 1572.1875 593.239063 " transform="matrix(0.1,0,0,-0.1,0,59.32)"/>
<path style="fill:none;stroke-width:21.0001;stroke-linecap:butt;stroke-linejoin:miter;stroke:rgb(94.898987%,39.599609%,13.299561%);stroke-opacity:1;stroke-miterlimit:4;" d="M 1669.414063 476.871875 L 1713.359375 555.85625 " transform="matrix(0.1,0,0,-0.1,0,59.32)"/>
<path style="fill:none;stroke-width:21.0001;stroke-linecap:butt;stroke-linejoin:miter;stroke:rgb(94.898987%,39.599609%,13.299561%);stroke-opacity:1;stroke-miterlimit:4;" d="M 1741.328125 406.715625 L 1817.890625 453.825 " transform="matrix(0.1,0,0,-0.1,0,59.32)"/>
<path style="fill:none;stroke-width:21.0001;stroke-linecap:butt;stroke-linejoin:miter;stroke:rgb(94.898987%,39.599609%,13.299561%);stroke-opacity:1;stroke-miterlimit:4;" d="M 1474.609375 477.770313 L 1430.976563 555.85625 " transform="matrix(0.1,0,0,-0.1,0,59.32)"/>
<path style="fill:none;stroke-width:21.0001;stroke-linecap:butt;stroke-linejoin:miter;stroke:rgb(94.898987%,39.599609%,13.299561%);stroke-opacity:1;stroke-miterlimit:4;" d="M 1403.007813 408.160938 L 1326.40625 453.825 " transform="matrix(0.1,0,0,-0.1,0,59.32)"/>
<path style=" stroke:none;fill-rule:evenodd;fill:rgb(13.699341%,12.199402%,12.5%);fill-opacity:1;" d="M 117.5 35.828125 C 117.5 35.828125 118.160156 33.402344 113.429688 31.335938 C 112.8125 31.0625 108.589844 29.128906 104.488281 27.449219 C 103.824219 27.175781 103.476563 25.933594 104.710938 25.488281 C 105.941406 25.042969 112.484375 23.203125 112.484375 23.203125 L 118.199219 23.203125 C 118.199219 23.203125 122.253906 23.21875 122.253906 27.191406 L 122.269531 43.050781 C 122.269531 43.050781 119.132813 39.84375 112.523438 37.894531 Z M 26.132813 31.625 C 26.132813 31.625 25.492188 32.027344 25.144531 31.65625 C 24.976563 31.488281 25.085938 31.179688 25.460938 30.808594 L 27.414063 29.015625 C 27.414063 29.015625 29.144531 27.402344 26.742188 27.285156 C 24.34375 27.171875 20.710938 27.191406 20.710938 27.191406 C 20.710938 27.191406 19.578125 27.324219 19.488281 26.808594 C 19.449219 26.5625 19.453125 26.269531 19.867188 26.003906 C 20.820313 25.382813 35.1875 22.09375 39.15625 26.949219 Z M 133.566406 19.570313 L 130.128906 17.980469 C 128.703125 20.578125 125.347656 20.328125 125.347656 20.328125 L 74.789063 20.328125 L 74.789063 21.523438 C 80.914063 22.53125 80.242188 25.859375 80.242188 25.859375 L 80.242188 43.132813 C 74.203125 37.851563 66.402344 37.683594 66.402344 37.683594 C 70.683594 35.335938 73.785156 32.652344 75.460938 31.226563 C 77.140625 29.800781 75.792969 27.496094 75.546875 27.117188 C 73.28125 23.761719 71.539063 22.5 70.179688 21.332031 C 66.488281 18.144531 62.796875 19.90625 62.796875 19.90625 L 57.601563 22.253906 C 45.945313 15.714844 39.101563 21.835938 39.101563 21.835938 L 39.101563 23.175781 C 20.734375 11.101563 8.578125 26.363281 8.578125 26.363281 L 8.578125 30.273438 L 20.820313 30.246094 L 15.789063 35.058594 L 15.789063 41.820313 L 38.972656 33.375 L 38.972656 44.953125 C 38.972656 44.953125 35.007813 42.089844 27.863281 43.101563 C 25.414063 43.449219 19.460938 45.566406 17.855469 45.953125 C 9.304688 48.003906 8.507813 41.863281 8.414063 41.257813 C 8.140625 39.628906 8.246094 39.507813 8.226563 38.441406 C 8.226563 36.449219 10.3125 36.875 10.3125 36.875 C 10.148438 35.726563 10.3125 33.710938 10.3125 33.710938 L 0.1875 33.710938 C 0.1875 33.710938 -0.0820313 36.636719 0.0234375 39.414063 C 0.375 48.707031 8.246094 51.777344 9.132813 51.988281 C 18.246094 54.226563 22.558594 48.710938 27.738281 48.25 C 33.996094 47.695313 38.933594 52.160156 38.933594 52.160156 L 38.933594 54.011719 L 47.476563 54.011719 L 47.476563 25.214844 C 47.421875 23.761719 48.683594 23.171875 49.152344 23.09375 C 52.847656 22.421875 54.738281 23.480469 54.738281 23.480469 C 54.738281 23.480469 53.644531 24.042969 52.066406 25.210938 C 50.554688 26.320313 51.109375 29.742188 51.226563 31.589844 C 51.34375 33.433594 54.410156 34.332031 54.410156 34.332031 L 57.152344 32.984375 C 54.804688 31.414063 56.644531 30.636719 56.644531 30.636719 C 56.644531 30.636719 66.328125 26.113281 68.003906 25.386719 C 69.679688 24.664063 70.597656 25.246094 70.773438 25.644531 C 71.101563 26.359375 70.304688 26.945313 70.121094 27.0625 C 55.871094 36.285156 51.003906 38.910156 51.003906 38.910156 L 51.003906 47.96875 C 68.78125 39.304688 80.246094 49.871094 80.246094 49.871094 L 80.246094 54.0625 L 88.796875 54.0625 L 88.796875 27.761719 C 88.796875 24.414063 86.023438 23.203125 86.023438 23.203125 L 101.082031 23.203125 C 101.082031 23.203125 96.4375 24.539063 94.433594 25.886719 C 92.082031 27.457031 92.585938 30.023438 92.585938 30.023438 L 103.023438 34.371094 C 103.023438 34.371094 104.304688 34.753906 104.355469 35.671875 C 104.4375 36.765625 103.019531 37.113281 103.019531 37.113281 C 103.019531 37.113281 97.003906 37.578125 94.003906 40.050781 C 91.835938 41.835938 92.335938 43.386719 92.335938 43.386719 L 92.335938 47.882813 C 92.34375 48.269531 92.34375 48.578125 92.53125 48.769531 C 94.917969 51.25 99.472656 52.003906 99.472656 52.003906 L 103.160156 49.992188 C 99.273438 49.6875 99.097656 48.792969 99.050781 48.035156 C 99.007813 47.425781 99.644531 45.476563 107.796875 45.054688 C 115.097656 44.679688 122.269531 49.925781 122.269531 49.925781 L 122.269531 54.035156 L 130.800781 54.035156 L 130.800781 27.957031 C 130.96875 23.761719 127.78125 23.175781 127.78125 23.175781 C 132.058594 22.507813 133.566406 19.570313 133.566406 19.570313 "/>
<g clip-path="url(#clip1)" clip-rule="nonzero">
<path style=" stroke:none;fill-rule:evenodd;fill:rgb(13.699341%,12.199402%,12.5%);fill-opacity:1;" d="M 184.632813 43.285156 C 184.632813 43.285156 183.160156 41.046875 180.707031 39.757813 C 180.707031 39.757813 181.886719 27.953125 169.332031 23.203125 L 182.109375 23.203125 C 182.109375 23.203125 184.585938 23.835938 184.632813 27.699219 Z M 277.042969 19.550781 L 273.605469 17.972656 C 272.179688 20.570313 268.824219 20.332031 268.824219 20.332031 L 268.851563 20.332031 L 149.546875 20.332031 L 149.546875 23.210938 L 158.347656 23.203125 C 148.832031 26.144531 149.8125 30.96875 149.8125 30.96875 L 149.8125 39.417969 C 150.894531 43.691406 156.75 42.160156 156.75 42.160156 C 156.75 42.160156 159.894531 41.691406 162.6875 40.527344 C 166.105469 39.441406 167.699219 38.316406 167.699219 38.316406 C 171.324219 36.621094 170.015625 33.652344 169.921875 33.378906 C 169.136719 31.414063 166.128906 28.828125 166.128906 28.828125 L 162.695313 29.914063 L 163.445313 30.667969 C 164.722656 31.617188 162.367188 32.90625 162.367188 32.90625 L 156.878906 34.667969 C 154.03125 35.347656 154.785156 34.011719 154.914063 33.722656 C 155.699219 31.957031 159.125 30.285156 160.308594 29.652344 C 169.035156 24.96875 171.167969 28.828125 172.175781 29.921875 C 178.746094 37.042969 172.851563 42.65625 171.488281 43.898438 C 161.640625 52.871094 152.429688 51.425781 151.976563 51.359375 C 142.808594 50.035156 142.835938 47.019531 142.835938 47.019531 L 143.671875 45.257813 L 140.597656 43.796875 L 133.4375 52.308594 C 159.90625 70.882813 178.449219 46.679688 178.449219 46.679688 C 182.570313 48.105469 184.632813 50.816406 184.632813 50.816406 L 184.632813 53.9375 L 193.1875 53.9375 L 193.1875 27.667969 C 193.125 23.835938 190.632813 23.203125 190.632813 23.203125 L 194.089844 23.203125 C 197.046875 24.300781 196.707031 27.71875 196.707031 27.71875 L 196.707031 53.9375 L 205.246094 53.9375 L 205.246094 27.34375 C 205.203125 23.601563 202.523438 23.203125 202.523438 23.203125 L 219.804688 23.203125 C 217.941406 24.289063 215.84375 25.851563 212.019531 28.96875 C 208.191406 32.429688 208.78125 36.09375 208.78125 36.09375 L 208.78125 44.304688 C 208.683594 45.796875 210.070313 47.738281 210.742188 48.308594 C 215.863281 52.644531 221.339844 54.773438 223.394531 55.429688 C 229.378906 57.332031 232.265625 53.9375 232.265625 53.9375 L 235.945313 50.273438 L 232.863281 48.511719 C 230.835938 51.960938 224.082031 47.6875 224.082031 47.6875 C 224.082031 47.6875 220.875 45.652344 219.511719 44.765625 C 215.566406 42.042969 216.21875 41.113281 216.21875 41.113281 L 216.21875 31.730469 C 216.589844 28.898438 226.6875 23.203125 226.6875 23.203125 L 251.03125 23.203125 C 254.082031 24.28125 253.738281 27.90625 253.738281 27.90625 L 253.738281 33.515625 C 249.914063 30.328125 246.972656 32.226563 246.972656 32.226563 L 242.164063 34.804688 C 242.164063 34.804688 242.964844 33.167969 244.421875 30.9375 C 245.792969 28.835938 244.226563 28.496094 244.226563 28.496094 C 244.226563 28.496094 242.753906 27.34375 239.710938 25.917969 C 234.316406 23.40625 230.59375 25.851563 230.59375 25.851563 C 230.59375 25.851563 226.273438 28.15625 222.84375 30.871094 C 219.410156 33.585938 219.703125 36.230469 219.703125 36.230469 L 219.703125 40.300781 C 221.621094 43.777344 226.667969 42.675781 226.667969 42.675781 L 228.039063 40.234375 C 224.535156 40.414063 225.644531 38.710938 226.046875 38.199219 L 238.046875 30.53125 C 238.046875 30.53125 239.273438 29.941406 239.675781 30.167969 C 240.542969 30.660156 239.710938 31.210938 239.710938 31.210938 C 238.339844 32.363281 234.300781 38.59375 233.925781 39.621094 C 232.0625 44.777344 235.59375 46.40625 235.59375 46.40625 L 249.546875 38.964844 C 252.980469 37.203125 253.738281 39.894531 253.738281 39.894531 L 253.738281 53.9375 L 262.265625 53.9375 L 262.265625 27.902344 C 262.292969 24.230469 259.5625 23.203125 259.5625 23.203125 L 263.03125 23.203125 C 266.078125 24.570313 265.789063 27.929688 265.789063 27.929688 L 265.789063 53.9375 L 274.316406 53.9375 L 274.316406 27.898438 C 274.316406 24.046875 271.511719 23.195313 271.511719 23.195313 C 275.773438 22.253906 277.042969 19.550781 277.042969 19.550781 "/>
</g>
</g>
</svg>
